<svg width="149" height="48" viewBox="0 0 149 48" fill="none" xmlns="http://www.w3.org/2000/svg">
<g clip-path="url(#clip0_4_284)">
<path d="M17.24 29.86C25.12 29.86 31.98 23.92 32.52 16.06C32.54 15.71 32.56 15.37 32.56 15.02C32.56 5.74 25.64 0 14.58 0H1.46997V7.85L14.04 7.81C19.9 7.81 22.86 10.47 22.86 15.03C22.86 19.59 19.9 22.25 14.04 22.25H10.17L10.36 29.87H17.24V29.86Z" fill="#4AC384"/>
<path d="M10.37 29.86H1.46997V42.29H10.37V29.86Z" fill="white"/>
<path d="M10.37 0H0V7.85H10.37V0Z" fill="white"/>
</g>
<path d="M49.4902 41V15.3652H58.9751C61.0259 15.3652 62.7227 15.707 64.0654 16.3906C65.4082 17.0742 66.4092 18.0142 67.0684 19.2104C67.7275 20.4067 68.0571 21.7495 68.0571 23.2388C68.0571 24.6548 67.7397 25.9609 67.105 27.1572C66.4702 28.3291 65.4814 29.2812 64.1387 30.0137C62.7959 30.7217 61.0747 31.0757 58.9751 31.0757H54.1777V41H49.4902ZM54.1777 27.2671H58.6821C60.3179 27.2671 61.4897 26.9131 62.1978 26.2051C62.9302 25.4727 63.2964 24.4839 63.2964 23.2388C63.2964 21.9692 62.9302 20.9805 62.1978 20.2725C61.4897 19.54 60.3179 19.1738 58.6821 19.1738H54.1777V27.2671ZM79.4108 41.4395C77.653 41.4395 76.0661 41.0366 74.6501 40.231C73.2585 39.4253 72.1476 38.3145 71.3176 36.8984C70.5119 35.458 70.1091 33.7979 70.1091 31.918C70.1091 30.0381 70.5241 28.3901 71.3542 26.9741C72.1843 25.5337 73.2951 24.4106 74.6867 23.605C76.1027 22.7993 77.6896 22.3965 79.4474 22.3965C81.1808 22.3965 82.7433 22.7993 84.1349 23.605C85.5509 24.4106 86.6618 25.5337 87.4675 26.9741C88.2975 28.3901 88.7126 30.0381 88.7126 31.918C88.7126 33.7979 88.2975 35.458 87.4675 36.8984C86.6618 38.3145 85.5509 39.4253 84.1349 40.231C82.7189 41.0366 81.1442 41.4395 79.4108 41.4395ZM79.4108 37.3745C80.6315 37.3745 81.6935 36.9229 82.5968 36.0195C83.5002 35.0918 83.9518 33.7246 83.9518 31.918C83.9518 30.1113 83.5002 28.7563 82.5968 27.853C81.6935 26.9253 80.6437 26.4614 79.4474 26.4614C78.2023 26.4614 77.1281 26.9253 76.2248 27.853C75.3459 28.7563 74.9064 30.1113 74.9064 31.918C74.9064 33.7246 75.3459 35.0918 76.2248 36.0195C77.1281 36.9229 78.1901 37.3745 79.4108 37.3745ZM92.9037 41V22.8359H97.0785L97.5179 26.2417C98.1771 25.0698 99.0682 24.1421 100.191 23.4585C101.339 22.7505 102.682 22.3965 104.22 22.3965V27.3403H102.901C101.876 27.3403 100.96 27.499 100.155 27.8164C99.349 28.1338 98.7142 28.6831 98.2504 29.4644C97.8109 30.2456 97.5912 31.332 97.5912 32.7236V41H92.9037ZM115.517 41C113.612 41 112.086 40.5361 110.939 39.6084C109.792 38.6807 109.218 37.0327 109.218 34.6646V26.7544H106.105V22.8359H109.218L109.767 17.9653H113.905V22.8359H118.813V26.7544H113.905V34.7012C113.905 35.5801 114.088 36.1904 114.455 36.5322C114.845 36.8496 115.504 37.0083 116.432 37.0083H118.703V41H115.517ZM129.099 41.4395C127.537 41.4395 126.255 41.1953 125.254 40.707C124.253 40.1943 123.509 39.5229 123.02 38.6929C122.532 37.8628 122.288 36.9473 122.288 35.9463C122.288 34.2617 122.947 32.8945 124.265 31.8447C125.584 30.7949 127.561 30.27 130.198 30.27H134.812V29.8306C134.812 28.5854 134.458 27.6699 133.75 27.084C133.042 26.498 132.163 26.2051 131.114 26.2051C130.161 26.2051 129.331 26.437 128.623 26.9009C127.915 27.3403 127.476 27.9995 127.305 28.8784H122.727C122.849 27.5601 123.289 26.4126 124.046 25.436C124.827 24.4595 125.828 23.7148 127.049 23.2021C128.269 22.665 129.636 22.3965 131.15 22.3965C133.738 22.3965 135.777 23.0435 137.266 24.3374C138.755 25.6313 139.5 27.4624 139.5 29.8306V41H135.508L135.069 38.0703C134.531 39.0469 133.775 39.8525 132.798 40.4873C131.846 41.1221 130.613 41.4395 129.099 41.4395ZM130.161 37.7773C131.504 37.7773 132.542 37.3379 133.274 36.459C134.031 35.5801 134.507 34.4937 134.702 33.1997H130.711C129.466 33.1997 128.574 33.4316 128.037 33.8955C127.5 34.335 127.232 34.8843 127.232 35.5435C127.232 36.2515 127.5 36.8008 128.037 37.1914C128.574 37.582 129.282 37.7773 130.161 37.7773ZM143.973 41V14.6328H148.66V41H143.973Z" fill="white"/>
<defs>
<clipPath id="clip0_4_284">
<rect width="32.56" height="42.29" fill="white"/>
</clipPath>
</defs>
</svg>
